HIERARCHY
ROOT Pelvis
{
	OFFSET 0.000000 0.000000 0.000000
	CHANNELS 6 Xposition Yposition Zposition Xrotation Yrotation Zrotation
	JOINT LeftUpLeg_virtual
	{
		OFFSET 0.000000 0.000000 0.000000
		CHANNELS 3 Xrotation Yrotation Zrotation
		JOINT LeftUpLeg
		{
			OFFSET 8.479700 -4.795502 -0.379100
			CHANNELS 3 Xrotation Yrotation Zrotation
			JOINT LeftLeg
			{
				OFFSET 0.024144 -32.555107 0.112900
				CHANNELS 3 Xrotation Yrotation Zrotation
				JOINT LeftFoot
				{
					OFFSET -0.024144 -32.638630 -3.012600
					CHANNELS 3 Xrotation Yrotation Zrotation
					JOINT LeftToeBase
					{
						OFFSET 0.970200 -13.225400 11.864200
						CHANNELS 3 Xrotation Yrotation Zrotation
						End Site
						{
							OFFSET 0 0 0
						}
					}
				}
			}
		}
	}
	JOINT RightUpLeg_virtual
	{
		OFFSET 0.000000 0.000000 0.000000
		CHANNELS 3 Xrotation Yrotation Zrotation
		JOINT RightUpLeg
		{
			OFFSET -8.479700 -4.795502 -0.379100
			CHANNELS 3 Xrotation Yrotation Zrotation
			JOINT RightLeg
			{
				OFFSET -0.023144 -32.555092 0.112900
				CHANNELS 3 Xrotation Yrotation Zrotation
				JOINT RightFoot
				{
					OFFSET 0.023144 -32.638641 -3.012700
					CHANNELS 3 Xrotation Yrotation Zrotation
					JOINT RightToeBase
					{
						OFFSET -0.970200 -13.225400 11.864200
						CHANNELS 3 Xrotation Yrotation Zrotation
						End Site
						{
							OFFSET 0 0 0
						}
					}
				}
			}
		}
	}
	JOINT Hips_virtual
	{
		OFFSET 0.000000 0.000000 0.000000
		CHANNELS 3 Xrotation Yrotation Zrotation
		JOINT Hips
		{
			OFFSET -0.000000 -0.000000 -0.000000
			CHANNELS 3 Xrotation Yrotation Zrotation
			JOINT Spine
			{
				OFFSET 0.000000 7.722000 1.166200
				CHANNELS 3 Xrotation Yrotation Zrotation
				JOINT Spine1
				{
					OFFSET 0.000000 12.024101 0.248800
					CHANNELS 3 Xrotation Yrotation Zrotation
					JOINT Spine2
					{
						OFFSET 0.000000 11.502998 -0.491200
						CHANNELS 3 Xrotation Yrotation Zrotation
						JOINT Neck_virtual
						{
							OFFSET 0.000000 0.000000 0.000000
							CHANNELS 3 Xrotation Yrotation Zrotation
							JOINT Neck
							{
								OFFSET 0.000000 18.430702 -3.123100
								CHANNELS 3 Xrotation Yrotation Zrotation
								JOINT Head
								{
									OFFSET 0.000000 9.051102 1.034000
									CHANNELS 3 Xrotation Yrotation Zrotation
									End Site
									{
										OFFSET 0 0 0
									}
								}
							}
						}
						JOINT LeftShoulder_virtual
						{
							OFFSET 0.000000 0.000000 0.000000
							CHANNELS 3 Xrotation Yrotation Zrotation
							JOINT LeftShoulder
							{
								OFFSET 6.197800 13.665199 -4.064700
								CHANNELS 3 Xrotation Yrotation Zrotation
								JOINT LeftArm
								{
									OFFSET 7.778100 -0.187103 -1.709300
									CHANNELS 3 Xrotation Yrotation Zrotation
									JOINT LeftForeArm
									{
										OFFSET 22.049376 0.000000 0.000000
										CHANNELS 3 Xrotation Yrotation Zrotation
										JOINT LeftHand
										{
											OFFSET 23.009392 0.000000 0.000000
											CHANNELS 3 Xrotation Yrotation Zrotation
											End Site
											{
												OFFSET 0 0 0
											}
										}
									}
								}
							}
						}
						JOINT RightShoulder_virtual
						{
							OFFSET 0.000000 0.000000 0.000000
							CHANNELS 3 Xrotation Yrotation Zrotation
							JOINT RightShoulder
							{
								OFFSET -6.197800 13.665199 -4.064700
								CHANNELS 3 Xrotation Yrotation Zrotation
								JOINT RightArm
								{
									OFFSET -7.778100 -0.187103 -1.709300
									CHANNELS 3 Xrotation Yrotation Zrotation
									JOINT RightForeArm
									{
										OFFSET -22.049376 0.000000 0.000000
										CHANNELS 3 Xrotation Yrotation Zrotation
										JOINT RightHand
										{
											OFFSET -23.009392 0.000000 0.000000
											CHANNELS 3 Xrotation Yrotation Zrotation
											End Site
											{
												OFFSET 0 0 0
											}
										}
									}
								}
							}
						}
					}
				}
			}
		}
	}
}
MOTION
Frames: 10
Frame Time: 0.03333333
-0.558912 74.601212 0.199244 0.000000 0.000000 0.000000 12.342087 -55.906232 11.199793 -43.260796 8.047313 26.843581 40.974216 -9.840613 -9.814543 -6.009136 -1.458793 -3.177401 0.000000 0.000000 0.000000 12.342087 -55.906232 11.199793 -31.217352 -10.079505 -20.073786 50.554352 8.633747 -0.928881 -33.502556 -4.640723 10.675306 0.000000 0.000000 0.000000 12.342087 -55.906232 11.199793 0.000000 0.000001 0.000000 11.714974 1.381340 -2.646872 -7.573166 6.733733 -2.520089 0.000000 0.000000 0.000000 0.220138 5.397601 -4.595494 -12.580313 9.083971 1.899285 0.000000 0.000000 0.000000 0.220138 5.397601 -4.595494 -31.809707 13.410707 5.488762 38.429533 -24.730804 -35.179190 -0.000002 -63.060842 0.000006 0.000000 0.000000 0.000000 0.220138 5.397601 -4.595494 0.882301 7.689500 10.202003 7.550379 1.963473 57.853731 -0.000062 75.685196 0.000069 0.000000 0.000000 0.000000 
-0.583873 74.608398 0.192732 0.000000 0.000000 0.000000 12.296420 -55.905402 11.140754 -43.212459 8.040950 26.885105 40.945031 -9.790952 -9.823353 -6.000345 -1.527609 -3.197435 0.000000 0.000000 0.000000 12.296420 -55.905402 11.140754 -31.152940 -10.112268 -20.036225 50.525904 8.633684 -0.928878 -33.513153 -4.641984 10.657288 0.000000 0.000000 0.000000 12.296420 -55.905402 11.140754 0.000000 0.000001 0.000000 11.714977 1.381390 -2.647192 -7.573175 6.733738 -2.520088 0.000000 0.000000 0.000000 0.220137 5.397598 -4.595490 -12.569274 9.762727 2.145932 0.000000 0.000000 0.000000 0.220137 5.397598 -4.595490 -31.777821 12.952646 5.310878 38.682899 -24.912965 -34.934553 -0.000062 -62.511667 -0.000061 0.000000 0.000000 0.000000 0.220137 5.397598 -4.595490 1.018007 7.684539 10.077998 7.270296 2.953152 57.421073 0.000041 75.186190 -0.000047 0.000000 0.000000 0.000000 
-0.616031 74.607544 0.187883 0.000000 0.000000 0.000000 12.257831 -55.850382 11.089416 -43.203457 8.029861 26.915100 40.931042 -9.746108 -9.832453 -5.985398 -1.638349 -3.209909 0.000000 0.000000 0.000000 12.257831 -55.850382 11.089416 -31.090345 -10.143394 -20.001733 50.525935 8.632659 -0.928944 -33.556180 -4.693250 10.627482 0.000000 0.000000 0.000000 12.257831 -55.850382 11.089416 0.000000 0.000000 0.000000 11.714994 1.381486 -2.647722 -7.573171 6.733738 -2.520090 0.000000 0.000000 0.000000 0.220140 5.397592 -4.595493 -12.608601 10.491372 2.412571 0.000000 0.000000 0.000000 0.220140 5.397592 -4.595493 -31.754079 12.465672 5.128833 39.012292 -25.126434 -34.726990 0.000018 -61.838784 -0.000002 0.000000 0.000000 0.000000 0.220140 5.397592 -4.595493 1.163711 7.679726 9.947281 6.979112 3.931135 56.951726 -0.000051 74.671733 0.000081 0.000000 0.000000 0.000000 
-0.644773 74.613373 0.185377 0.000000 0.000000 0.000000 12.224673 -55.832664 11.036750 -43.171751 8.021085 26.956551 40.908079 -9.697700 -9.841453 -5.978150 -1.721185 -3.226446 0.000000 0.000000 0.000000 12.224673 -55.832664 11.036750 -31.024837 -10.179441 -19.961242 50.496637 8.632377 -0.928981 -33.573972 -4.709365 10.607922 0.000000 0.000000 0.000000 12.224673 -55.832664 11.036750 0.000000 0.000001 0.000000 11.714994 1.381574 -2.648051 -7.573174 6.733754 -2.520092 0.000000 0.000000 0.000000 0.220139 5.397591 -4.595490 -12.694468 11.267587 2.689842 0.000000 0.000000 0.000000 0.220139 5.397591 -4.595490 -31.738352 11.953794 4.944353 39.461572 -25.312643 -34.536862 -0.000001 -61.081043 -0.000007 0.000000 0.000000 0.000000 0.220139 5.397591 -4.595490 1.316089 7.674880 9.811794 6.684431 4.902605 56.464306 0.000075 74.142919 -0.000069 0.000000 0.000000 0.000000 
-0.683573 74.612984 0.183645 0.000000 0.000000 0.000000 12.200735 -55.768761 10.992964 -43.169439 8.006822 26.989405 40.895645 -9.650036 -9.850452 -5.968173 -1.841278 -3.240323 0.000000 0.000000 0.000000 12.200735 -55.768761 10.992964 -30.959031 -10.216559 -19.921027 50.490083 8.631476 -0.929054 -33.621907 -4.767283 10.576635 0.000000 0.000000 0.000000 12.200735 -55.768761 10.992964 0.000000 -0.000002 0.000000 11.715018 1.381684 -2.648574 -7.573171 6.733736 -2.520091 0.000000 0.000000 0.000000 0.220136 5.397606 -4.595490 -12.821389 12.084340 2.975462 0.000000 0.000000 0.000000 0.220136 5.397606 -4.595490 -31.730422 11.421049 4.759066 39.967006 -25.538412 -34.374259 -0.000014 -60.212352 -0.000017 0.000000 0.000000 0.000000 0.220136 5.397606 -4.595490 1.475929 7.670219 9.670640 6.392930 5.865450 55.957301 0.000048 73.593519 -0.000063 0.000000 0.000000 0.000000 
-0.714893 74.619301 0.178957 0.000000 0.000000 0.000000 12.161133 -55.772289 10.933675 -43.118072 7.990584 27.037673 40.879048 -9.604825 -9.859621 -5.976585 -1.899107 -3.264345 0.000000 0.000000 0.000000 12.161133 -55.772289 10.933675 -30.891880 -10.256377 -19.877929 50.460413 8.631278 -0.929071 -33.637193 -4.759742 10.558766 0.000000 0.000000 0.000000 12.161133 -55.772289 10.933675 0.000000 0.000000 0.000000 11.715023 1.381757 -2.648836 -7.573166 6.733738 -2.520093 0.000000 0.000000 0.000000 0.220139 5.397594 -4.595491 -12.982812 12.934142 3.267431 0.000000 0.000000 0.000000 0.220139 5.397594 -4.595491 -31.729941 10.871493 4.574480 40.571354 -25.747281 -34.219839 0.000013 -59.253858 0.000012 0.000000 0.000000 0.000000 0.220139 5.397594 -4.595491 1.643112 7.665854 9.523404 6.114638 6.818350 55.434444 -0.000023 73.016717 0.000023 0.000000 0.000000 0.000000 
-0.757887 74.618088 0.180258 0.000000 0.000000 0.000000 12.138166 -55.722234 10.897381 -43.107014 7.988932 27.073441 40.875943 -9.553555 -9.868563 -5.981662 -2.021134 -3.278811 0.000000 0.000000 0.000000 12.138166 -55.722234 10.897381 -30.827133 -10.290974 -19.846254 50.456766 8.630244 -0.929160 -33.688344 -4.801973 10.532235 0.000000 0.000000 0.000000 12.138166 -55.722234 10.897381 0.000000 0.000004 0.000000 11.715041 1.381889 -2.649257 -7.573171 6.733740 -2.520091 0.000000 0.000000 0.000000 0.220139 5.397589 -4.595493 -13.172012 13.808992 3.564265 0.000000 0.000000 0.000000 0.220139 5.397589 -4.595493 -31.736491 10.309243 4.391984 41.206675 -26.015156 -34.093723 -0.000009 -58.194031 -0.000003 0.000000 0.000000 0.000000 0.220139 5.397589 -4.595493 1.816775 7.661907 9.370138 5.862047 7.760580 54.903366 0.000070 72.405387 -0.000071 0.000000 0.000000 0.000000 
-0.804427 74.623177 0.187658 0.000000 0.000000 0.000000 12.074899 -55.686303 10.824544 -43.051502 7.988609 27.108524 40.862006 -9.508612 -9.877706 -5.996384 -2.124273 -3.293011 0.000000 0.000000 0.000000 12.074899 -55.686303 10.824544 -30.720692 -10.336657 -19.813933 50.423069 8.629943 -0.929201 -33.728949 -4.831719 10.513376 0.000000 0.000000 0.000000 12.074899 -55.686303 10.824544 0.000000 0.000000 0.000000 11.715029 1.382169 -2.649628 -7.573171 6.733746 -2.520090 0.000000 0.000000 0.000000 0.220137 5.397596 -4.595490 -13.383209 14.700461 3.864775 0.000000 0.000000 0.000000 0.220137 5.397596 -4.595490 -31.749554 9.738397 4.212833 41.888345 -26.318683 -33.990156 -0.000006 -57.037701 -0.000014 0.000000 0.000000 0.000000 0.220137 5.397596 -4.595490 1.995595 7.658464 9.211161 5.648678 8.691562 54.373879 -0.000044 71.752654 0.000035 0.000000 0.000000 0.000000 
-0.857136 74.611336 0.196333 0.000000 0.000000 0.000000 12.014911 -55.638776 10.756788 -43.034314 7.975352 27.153190 40.912475 -9.463895 -9.886705 -6.039314 -2.248853 -3.307257 0.000000 0.000000 0.000000 12.014911 -55.638776 10.756788 -30.638572 -10.373272 -19.788421 50.452582 8.627016 -0.929483 -33.810529 -4.866916 10.486570 0.000000 0.000000 0.000000 12.014911 -55.638776 10.756788 0.000000 0.000002 0.000000 11.715047 1.382554 -2.649890 -7.573173 6.733732 -2.520091 0.000000 0.000000 0.000000 0.220136 5.397596 -4.595490 -13.611889 15.600395 4.167291 0.000000 0.000000 0.000000 0.220136 5.397596 -4.595490 -31.768422 9.163165 4.038137 42.599996 -26.639881 -33.886249 -0.000005 -55.860388 -0.000013 0.000000 0.000000 0.000000 0.220136 5.397596 -4.595490 2.178120 7.655619 9.046888 5.487191 9.610654 53.855461 0.000019 71.052566 -0.000026 0.000000 0.000000 0.000000 
-0.908727 74.603012 0.202305 0.000000 0.000000 0.000000 11.964786 -55.632915 10.694872 -42.993476 7.962314 27.209069 40.958937 -9.416322 -9.895724 -6.093271 -2.338832 -3.331777 0.000000 0.000000 0.000000 11.964786 -55.632915 10.694872 -30.562566 -10.409826 -19.762118 50.466967 8.627538 -0.929338 -33.873312 -4.863968 10.475050 0.000000 0.000000 0.000000 11.964786 -55.632915 10.694872 0.000000 0.000001 0.000000 11.715055 1.382920 -2.650092 -7.573173 6.733743 -2.520093 0.000000 0.000000 0.000000 0.220136 5.397604 -4.595492 -13.853872 16.502012 4.468501 0.000000 0.000000 0.000000 0.220136 5.397604 -4.595492 -31.792406 8.587717 3.868877 43.344517 -26.974809 -33.784704 -0.000003 -54.622607 -0.000015 0.000000 0.000000 0.000000 0.220136 5.397604 -4.595492 2.362982 7.653376 8.877730 5.387275 10.517449 53.355392 0.000027 70.301136 -0.000034 0.000000 0.000000 0.000000 
